<svg xmlns="http://www.w3.org/2000/svg" width="24" height="24" viewBox="0 0 24 24"><defs><style>.a{fill:none;}.b{fill:#e0e0e0;}</style></defs><g transform="translate(-691.5 -7.5)"><path class="a" d="M0,0H24V24H0Z" transform="translate(691.5 7.5)"/><path class="b" d="M12594,16353a1,1,0,0,1-1-1v-13a1.009,1.009,0,0,1,1-1h13a1,1,0,0,1,.71.291.99.99,0,0,1,.287.71v13a1,1,0,0,1-1,1Zm.821-12.8v10.593a.49.49,0,0,0,.488.488h10.392a.49.49,0,0,0,.488-.488V16340.2a.487.487,0,0,0-.488-.488h-10.392A.487.487,0,0,0,12594.82,16340.2Zm2.43,9.3a.751.751,0,0,1,0-1.5h3a.751.751,0,0,1,0,1.5Zm0-3a.751.751,0,0,1,0-1.5h6.5a.751.751,0,1,1,0,1.5Zm0-3a.751.751,0,0,1,0-1.5h6.5a.751.751,0,1,1,0,1.5Z" transform="translate(-11897 -16326.002)"/></g></svg>